<?xml version="1.0" encoding="UTF-8" standalone="no"?>
<!-- Created with Inkscape (http://www.inkscape.org/) -->
<svg xmlns:i="http://ns.adobe.com/AdobeIllustrator/10.0/" xmlns:dc="http://purl.org/dc/elements/1.1/" xmlns:cc="http://creativecommons.org/ns#" xmlns:rdf="http://www.w3.org/1999/02/22-rdf-syntax-ns#" xmlns:svg="http://www.w3.org/2000/svg" xmlns="http://www.w3.org/2000/svg" xmlns:xlink="http://www.w3.org/1999/xlink" xmlns:sodipodi="http://sodipodi.sourceforge.net/DTD/sodipodi-0.dtd" xmlns:inkscape="http://www.inkscape.org/namespaces/inkscape" width="300" height="400" id="svg2" version="1.1" inkscape:version="0.48.3.1 r9886" sodipodi:docname="Fußballspieler_Junge.svg">
  <title id="title4129">Soccer Boy</title>
  <defs id="defs4">
    <linearGradient id="linearGradient5370">
      <stop style="stop-color:#c9b1a2;stop-opacity:1;" offset="0" id="stop5372"/>
      <stop style="stop-color:#ffe1cf;stop-opacity:1;" offset="1" id="stop5374"/>
    </linearGradient>
    <radialGradient gradientTransform="matrix(0.1625329,0.07099734,-0.04633738,0.1060793,235.50659,724.0043)" gradientUnits="userSpaceOnUse" r="291" fy="828.6134" fx="235.36554" cy="828.6134" cx="235.36554" id="radialGradient12880" xlink:href="#linearGradient4110" inkscape:collect="always"/>
    <linearGradient id="linearGradient4110">
      <stop id="stop4112" offset="0" style="stop-color:#6e6e6e;stop-opacity:1;"/>
      <stop id="stop4114" offset="1" style="stop-color:#280b0b;stop-opacity:1;"/>
    </linearGradient>
    <linearGradient id="linearGradient11897">
      <stop style="stop-color:#6e6e6e;stop-opacity:1;" offset="0" id="stop11899"/>
      <stop style="stop-color:#000000;stop-opacity:1" offset="1" id="stop11901"/>
    </linearGradient>
    <linearGradient inkscape:collect="always" xlink:href="#linearGradient5370" id="linearGradient5376" x1="92.75071" y1="762.49207" x2="91.293205" y2="769.56311" gradientUnits="userSpaceOnUse"/>
  </defs>
  <sodipodi:namedview id="base" pagecolor="#ffffff" bordercolor="#666666" borderopacity="1.0" inkscape:pageopacity="0.0" inkscape:pageshadow="2" inkscape:zoom="1" inkscape:cx="113.55277" inkscape:cy="101.34178" inkscape:document-units="px" inkscape:current-layer="layer1" showgrid="false" inkscape:window-width="1600" inkscape:window-height="1180" inkscape:window-x="-2" inkscape:window-y="-3" inkscape:window-maximized="1"/>
  <g inkscape:label="Ebene 1" inkscape:groupmode="layer" id="layer1" transform="translate(0,-652.36218)">
    <path style="fill:#4056f3;fill-opacity:1;stroke:none" d="m 70.357125,110.79333 c -4.818683,0.32712 -17.684233,4.72717 -24.041631,10.25304 -5.557082,9.69058 -10.214556,10.77007 -14.849242,13.08148 C 16.08774,143.94106 9.7475971,157.43426 8.4852814,169.12963 19.847121,167.63715 26.270105,150.96989 43.487067,164.53344 l -4.949748,18.73833 c 4.578976,-2.6139 11.690149,-11.31143 19.091884,-23.33452 4.416908,-3.71701 -2.445089,3.54847 0.353553,44.19417 2.296831,3.7226 -6.009332,27.0897 -1.06066,46.3155 1.438109,4.66706 2.124255,8.95815 5.303301,14.49568 5.754626,6.31558 15.554846,11.26085 17.324116,6.36397 l -10.960155,-6.71752 c 1.374597,-6.49586 -1.095627,-10.19548 9.899495,-23.68808 7.08923,-6.67522 6.171056,-8.90189 4.949747,-10.96015 7.592704,5.51969 15.554342,-12.04412 20.15254,-7.07107 12.65358,-1.50741 10.78252,1.45089 15.2028,2.47487 7.54247,-0.81163 15.08495,-3.15298 22.62742,-1.41421 -4.82927,-13.68239 -3.29179,-28.12177 -8.48529,-44.54773 1.2679,-10.36031 4.79349,-23.42985 1.76777,-28.63782 8.95427,0.70711 12.74259,1.41421 31.1127,2.12132 2.57789,1.06561 3.69996,2.61649 8.83884,2.82843 l 2.12132,-8.48528 -7.07107,0.35355 c -1.19166,-7.32245 -4.52333,-14.56298 3.18198,-27.22361 l -27.57717,0.35355 -3.88908,-2.82843 c -9.46594,-2.07186 -16.18242,-3.45635 -28.99138,-6.36396 -1.07899,5.35481 1.23412,8.44822 2.82843,12.02082 -0.82169,7.90257 -2.24807,14.59575 -4.94975,18.73833 -9.3194,-6.94406 -20.7418,-11.78511 -31.1127,-17.67767 -4.116551,-3.71849 -8.387511,-7.32117 -8.838835,-13.78858 z" id="path5378" inkscape:connector-curvature="0" transform="translate(0,652.36218)" sodipodi:nodetypes="ccccccccccccccccccccccccccccccc"/>
    <path style="fill:none;stroke:#ffbf00;stroke-width:3.18897629;stroke-linecap:butt;stroke-linejoin:miter;stroke-miterlimit:4;stroke-opacity:1;stroke-dasharray:none" d="m 72.478445,110.79333 c 1.611813,11.6521 22.343603,19.52152 37.123105,28.63782 l 2.82843,-17.67767 -2.47488,-5.65685 0.35356,-3.53554" id="path5384" inkscape:connector-curvature="0" transform="translate(0,652.36218)" sodipodi:nodetypes="ccccc"/>
    <path style="fill:#ffe238;fill-opacity:1;stroke:#000000;stroke-width:2.83464574999999996;stroke-linecap:butt;stroke-linejoin:miter;stroke-miterlimit:4;stroke-opacity:1;stroke-dasharray:none" d="m 55.940937,718.44975 c 11.641714,28.08686 28.127943,45.54965 49.690263,43.78491 9.96862,-0.81587 11.46481,-3.8508 16.49717,-10.94623 7.0107,-9.88478 11.91502,-32.13128 11.91502,-46.17472 1.96506,-2.17067 1.85494,-7.84825 -0.28749,-16.57572 -1.15571,-13.51478 -6.2586,-14.20225 -11.08093,-15.77685 -2.53308,-8.60721 -7.16333,-9.19006 -11.92567,-9.2567 -3.60492,-2.83692 -4.99753,-7.18393 -13.093383,-6.94848 -1.868275,0.0544 -4.090511,0.35763 -6.782722,0.97565 -7.163715,0.27456 -14.715236,-1.83285 -20.447545,7.35301 -9.423667,2.02071 -15.981932,6.33513 -15.602744,16.30036 -10.103565,9.69407 -10.941908,17.16623 -12.223805,24.74799 -0.242926,8.41805 4.809302,19.68508 18.758076,33.71915 3.028737,6.36849 7.75405,7.26029 10.782787,7.90032 -3.702449,-4.58042 -4.983663,-7.60967 -9.664756,-14.96778 -3.430402,-6.56681 -6.807567,-14.13491 -6.807567,-14.13491 -11.90477,-3.71853 -6.339214,-29.91058 5.962832,-16.03861 3.902825,4.98047 6.580613,10.14929 5.962832,-2.18924 -1.38348,-6.91078 0.108921,-8.28546 0.844735,-11.1366 7.755537,-1.41389 8.153163,-5.86113 11.080929,-9.2567 5.010099,-4.424 9.374757,-8.35504 17.317058,-7.06746 10.713543,7.4764 15.304923,6.2028 19.304673,6.8057 6.1685,0.39818 10.82364,5.73392 13.34183,10.32753 1.83221,8.96322 2.29552,14.27136 4.39759,15.56268" id="path3847" inkscape:connector-curvature="0" sodipodi:nodetypes="cssccccscccccccccccccccc"/>
    <path style="fill:#ffeee0;fill-opacity:1;stroke:none" d="m 62.932504,54.048007 c 1.991771,4.001525 6.870888,4.968345 6.717514,-3.18198 -0.197816,-4.831897 -3.062691,-8.24958 -0.176777,-13.081476 5.126525,-0.58107 7.071068,-4.031769 10.783379,-9.545941 4.260158,-3.87157 7.817513,-7.031729 16.263455,-6.363961 6.086175,2.820892 8.006175,6.356683 22.097085,7.071067 3.73807,2.854245 6.1394,3.133896 9.19239,9.015611 1.64004,6.811973 2.40102,15.340985 5.3033,16.440233 -1.61051,15.242128 -2.73197,25.517995 -10.25304,41.719301 -4.76052,11.689349 -21.42029,20.584549 -44.724511,2.828427 C 67.614924,88.443292 63.037145,77.809437 56.922096,66.422375 43.02951,59.272944 52.800753,37.14873 62.932504,54.048007 z" id="path5368" inkscape:connector-curvature="0" transform="translate(0,652.36218)" sodipodi:nodetypes="cccccccccccc"/>
    <path style="fill:none;stroke:#000000;stroke-width:2.83464575;stroke-linecap:round;stroke-linejoin:miter;stroke-miterlimit:4;stroke-opacity:1;stroke-dasharray:none" d="m 107.79768,710.31329 c 0.98652,4.99369 3.51298,7.36025 6.54315,7.08813 5.97108,-0.74419 9.13855,5.14006 3.45622,9.14781 -3.08016,2.49829 -8.04,1.26672 -11.34154,-1.257" id="path3756" inkscape:connector-curvature="0" sodipodi:nodetypes="cccc"/>
    <path style="fill:#ffffff;stroke:#000000;stroke-width:2.12598419000000005;stroke-linecap:butt;stroke-linejoin:miter;stroke-miterlimit:4;stroke-opacity:1;stroke-dasharray:none;fill-opacity:1" d="m 98.52816,705.16311 c 1.309517,11.77764 -13.604774,7.81391 -16.737638,5.757 1.682918,-3.40973 11.009884,-10.48317 16.737638,-5.757 z" id="path3758" inkscape:connector-curvature="0" sodipodi:nodetypes="ccc"/>
    <path style="fill:#ffffff;stroke:#000000;stroke-width:2.12598419000000005;stroke-linecap:butt;stroke-linejoin:miter;stroke-miterlimit:4;stroke-opacity:1;stroke-dasharray:none;fill-opacity:1" d="m 110.26173,703.77059 c 5.90326,8.87004 14.34747,-1.7616 15.4095,-4.84498 -3.19514,-1.47856 -14.02917,-1.46279 -15.4095,4.84498 z" id="path3758-4" inkscape:connector-curvature="0" sodipodi:nodetypes="ccc"/>
    <path style="fill:#ff3f38;stroke:#000000;stroke-width:2.83464574999999996;stroke-linecap:round;stroke-linejoin:miter;stroke-miterlimit:4;stroke-opacity:1;stroke-dasharray:none;fill-opacity:1" d="m 86.333635,738.57492 c 25.693475,4.80011 30.711185,2.68663 36.344875,-4.35129 -3.1863,4.38146 -1.29227,8.26626 -9.6541,13.86976 -9.55429,4.20031 -6.88336,-8.15225 -26.690775,-9.51847 z" id="path3778" inkscape:connector-curvature="0" sodipodi:nodetypes="cccc"/>
    <path style="fill:none;stroke:#000000;stroke-width:2.83464575;stroke-linecap:round;stroke-linejoin:miter;stroke-miterlimit:4;stroke-opacity:1;stroke-dasharray:none" d="m 75.259806,703.22065 c 5.42527,-3.24322 8.2178,-9.36825 18.45638,-7.34281 l 0,0" id="path3780" inkscape:connector-curvature="0" sodipodi:nodetypes="ccc"/>
    <path style="fill:none;stroke:#000000;stroke-width:2.83464575;stroke-linecap:round;stroke-linejoin:miter;stroke-miterlimit:4;stroke-opacity:1;stroke-dasharray:none" d="m 125.31749,691.89354 c -6.38966,-0.25715 -9.41842,-4.26504 -17.28054,2.33513 l 0,0" id="path3780-7" inkscape:connector-curvature="0" sodipodi:nodetypes="ccc"/>
    <path sodipodi:type="arc" style="fill:#009dff;stroke:#000000;stroke-width:3.02166962999999988;stroke-linecap:round;stroke-miterlimit:4;stroke-opacity:1;stroke-dasharray:none;fill-opacity:1" id="path3800" sodipodi:cx="382.85715" sodipodi:cy="120.04076" sodipodi:rx="5" sodipodi:ry="6.25" d="m 387.85715,120.04076 a 5,6.25 0 1 1 -10,0 5,6.25 0 1 1 10,0 z" transform="matrix(0.67309256,-0.22748038,0.23317977,0.65664079,-193.53487,716.38469)"/>
    <path sodipodi:type="arc" style="fill:#009dff;stroke:#000000;stroke-width:3.21613884000000017;stroke-linecap:round;stroke-miterlimit:4;stroke-opacity:1;stroke-dasharray:none;fill-opacity:1" id="path3800-8" sodipodi:cx="382.85715" sodipodi:cy="120.04076" sodipodi:rx="5" sodipodi:ry="5.9342127" d="m 387.85715,120.04076 a 5,5.9342127 0 1 1 -10,0 5,5.9342127 0 1 1 10,0 z" transform="matrix(0.71125628,0.17607889,-0.0787654,0.5948629,-144.61992,563.17599)"/>
    <path sodipodi:type="arc" style="fill:#000000;fill-opacity:1;stroke:#000000;stroke-width:2.57608271;stroke-linecap:round;stroke-miterlimit:4;stroke-opacity:1;stroke-dasharray:none" id="path3827" sodipodi:cx="388.75" sodipodi:cy="130.21933" sodipodi:rx="1.9642857" sodipodi:ry="2.5" d="m 390.71429,130.21933 a 1.9642857,2.5 0 1 1 -3.92858,0 1.9642857,2.5 0 1 1 3.92858,0 z" transform="matrix(0.50593727,0,0,0.59830318,-104.24467,630.06925)"/>
    <path sodipodi:type="arc" style="fill:#000000;fill-opacity:1;stroke:#000000;stroke-width:2.57608271;stroke-linecap:round;stroke-miterlimit:4;stroke-opacity:1;stroke-dasharray:none" id="path3827-1" sodipodi:cx="388.75" sodipodi:cy="130.21933" sodipodi:rx="1.9642857" sodipodi:ry="2.5" d="m 390.71429,130.21933 a 1.9642857,2.5 0 1 1 -3.92858,0 1.9642857,2.5 0 1 1 3.92858,0 z" transform="matrix(0.48355799,-0.14252638,0.18373386,0.57183825,-93.489517,682.80361)"/>
    <path style="fill:none;stroke:#000000;stroke-width:2.12598419;stroke-linecap:round;stroke-linejoin:miter;stroke-miterlimit:4;stroke-opacity:1;stroke-dasharray:none" d="m 52.828196,707.8439 c 0.63559,-7.85189 3.632621,-6.35159 6.246782,-3.53542 1.387829,1.53497 5.021047,3.98958 -1.135784,4.07933 -2.781606,1.17847 -1.761095,2.90087 2.271561,4.07934" id="path3851" inkscape:connector-curvature="0" sodipodi:nodetypes="cccc"/>
    <path style="fill:url(#linearGradient5376);stroke:#000000;stroke-width:2.83464574999999996;stroke-linecap:butt;stroke-linejoin:miter;stroke-miterlimit:4;stroke-opacity:1;stroke-dasharray:none;fill-opacity:1" d="m 75.429702,750.42922 0.655273,14.28806 c 8.233086,14.83337 24.122065,17.5504 32.355155,23.62617 0.72221,-6.36189 4.04147,-13.53415 0.5465,-18.69113 l -0.75879,-7.43462 c -10.71429,-0.1928 -15.979071,1.36149 -32.798138,-11.78848 z" id="path3853" inkscape:connector-curvature="0" sodipodi:nodetypes="cccccc"/>
    <path style="fill:none;stroke:#ffb200;stroke-width:2.83464567;stroke-linecap:butt;stroke-linejoin:miter;stroke-opacity:1;stroke-miterlimit:4;stroke-dasharray:none" d="M 8.8388348,169.83674 C 13.809399,153.16043 45.323867,147.9332 47.729708,172.66517" id="path5380" inkscape:connector-curvature="0" transform="translate(0,652.36218)" sodipodi:nodetypes="cc"/>
    <path style="fill:none;stroke:#000000;stroke-width:2.83464575;stroke-linecap:butt;stroke-linejoin:miter;stroke-miterlimit:4;stroke-opacity:1;stroke-dasharray:none" d="m 75.682451,762.14107 c -21.389501,3.58847 -19.547582,5.3101 -27.271216,9.30366 -7.473845,3.86442 -3.675691,7.33789 -16.559882,14.18308 -4.259227,2.26286 -29.5402235,21.38084 -21.254478,47.12868 -5.1111864,-25.97835 37.850856,-30.14079 35.725741,-4.99928 5.697448,-7.07209 10.632641,-15.06379 10.632641,-15.06379 0,0 3.425494,-4.24945 0.835066,9.24748 -2.590427,13.49693 2.733456,29.42844 -0.797277,47.2871 -3.530733,17.85865 -1.079589,27.98382 2.105112,40.98524 4.941463,20.1733 31.70736,16.28977 16.454113,10.76273" id="path3855" inkscape:connector-curvature="0" sodipodi:nodetypes="csscccsssc"/>
    <path style="fill:none;stroke:#ffab00;stroke-width:3.18897629;stroke-linecap:butt;stroke-linejoin:miter;stroke-miterlimit:4;stroke-opacity:1;stroke-dasharray:none" d="m 169.70563,121.39992 c -7.06737,8.3853 -4.6169,26.46325 -1.41422,31.46626 l 1.41421,1.06066" id="path5382" inkscape:connector-curvature="0" transform="translate(0,652.36218)" sodipodi:nodetypes="ccc"/>
    <path style="fill:none;stroke:#000000;stroke-width:2.83464575;stroke-linecap:butt;stroke-linejoin:miter;stroke-miterlimit:4;stroke-opacity:1;stroke-dasharray:none" d="m 108.76438,763.91744 c 10.59191,-0.46024 20.70474,3.92501 29.02271,5.20538 10.05398,1.5476 2.25455,4.30193 13.55668,4.13812 15.4702,-0.22421 11.78612,-0.97141 21.23746,-0.0721 -7.90935,8.34747 -3.10692,29.98377 0.13774,34.06922 -13.52016,-1.32089 2.10622,-1.78463 -17.65581,-2.42441 -14.12921,-0.45742 -8.47477,-0.20091 -12.69587,-0.34127 -3.73276,-0.12412 -6.68774,-0.9599 -6.68774,-0.9599 2.36425,11.56047 -4.52136,21.06854 -2.42484,29.15203 5.0489,19.46705 2.62348,16.26964 7.68654,43.33335" id="path3857" inkscape:connector-curvature="0" sodipodi:nodetypes="cssccsscsc"/>
    <path style="fill:#ffe1cf;stroke:#000000;stroke-width:2.83464574999999996;stroke-linecap:butt;stroke-linejoin:miter;stroke-miterlimit:4;stroke-opacity:1;stroke-dasharray:none;fill-opacity:1" d="m 12.708056,896.44476 c 0.636698,7.01265 -0.328072,8.48312 3.136315,12.55561 3.678545,5.04788 6.19641,10.38113 5.911486,16.40349 -2.594213,2.92943 6.581979,8.35171 5.924059,-1.10467 1.294758,-6.75822 -3.135163,-10.17236 -5.64028,-14.71087 6.066116,8.72847 6.370166,9.62643 7.923027,15.8368 -1.702113,5.30959 5.79059,5.16813 5.88633,1.36688 0.697022,-3.99576 -2.704738,-11.50411 -7.693133,-17.91577 3.496904,5.57858 8.664616,10.06216 10.184853,16.93619 -1.114042,4.27435 7.488468,3.7791 5.7319,-1.49726 -1.81052,-6.55659 -7.072734,-11.39422 -10.835551,-16.95212 4.198065,5.00638 8.029479,7.94255 11.681677,15.49748 0.603002,6.21554 7.119989,1.79897 4.013799,-1.83983 -2.533849,-6.37864 -3.583307,-11.69039 -7.942092,-14.80229 l -5.754409,-10.98294 c 1.522132,3.78852 4.181974,4.65248 5.163726,6.22507 l 4.310171,4.4175 c 2.56792,2.45518 4.772684,2.60966 5.90415,-0.19247 -4.52948,-9.99084 -8.352554,-11.88087 -12.123925,-13.95241 -2.159059,-1.57091 -4.283216,-3.24092 -6.924247,-3.44352 -1.567504,-0.26742 -2.014663,-3.00156 -3.874206,-2.36844 -0.464891,0.15828 3.084392,-5.16142 2.04389,-11.69149 -1.040501,-6.53009 3.141246,-9.87204 1.911206,-18.6154 -1.230041,-8.74336 14.745731,-34.78799 10.380353,-39.68924 -6.65365,-7.47044 -19.124345,-5.9401 -25.499783,-0.64613 -2.518729,2.28411 -9.6685948,37.64394 -9.7975019,38.70077 -0.4472928,3.66705 4.4960189,44.33446 5.9781859,42.46506 z" id="path3859" inkscape:connector-curvature="0" sodipodi:nodetypes="ccccccccccccccccccccsssscsc"/>
    <path style="fill:none;stroke:#000000;stroke-width:2.83464575;stroke-linecap:butt;stroke-linejoin:miter;stroke-miterlimit:4;stroke-opacity:1;stroke-dasharray:none" d="m 37.070633,836.81515 c 3.928468,0.0335 8.923328,-8.51603 9.355461,-10.29832" id="path3861" inkscape:connector-curvature="0" sodipodi:nodetypes="cc" inkscape:transform-center-x="-3.4954714" inkscape:transform-center-y="-1.3033538"/>
    <path style="fill:#ffe1cf;stroke:#000000;stroke-width:2.83464574999999996;stroke-linecap:butt;stroke-linejoin:miter;stroke-miterlimit:4;stroke-opacity:1;stroke-dasharray:none;fill-opacity:1" d="m 171.7584,774.06941 43.1702,3.2373 11.95779,-2.00707 c 8.5572,-2.08999 14.50502,-0.20213 22.48919,1e-5 6.3799,1.43548 6.85842,4.62543 0.4785,6.6989 l -18.9005,-0.71774 18.42199,0.71774 c 5.74194,1.43548 5.74191,4.78494 0,6.22042 l -11.96233,-0.23925 -10.28761,-0.71775 7.89514,4.30645 4.78494,0.23925 c 5.30344,-0.0115 9.17581,4.79499 -0.47849,5.98116 -3.7957,0.3224 -5.08934,1.90919 -11.87526,0.43745 -1.60009,-0.40897 -5.80533,2.11863 -9.29457,-2.06863 -0.91059,-0.83661 -3.22914,-0.58447 -5.19721,-0.23598 -1.50662,0.26679 -41.768,2.7219 -42.96839,3.62408 -2.32603,-4.41645 -2.5433,-18.44191 1.76661,-25.47634 z" id="path3863" inkscape:connector-curvature="0" sodipodi:nodetypes="cccccccccccccccscc"/>
    <path style="fill:none;stroke:#000000;stroke-width:2.83464575;stroke-linecap:butt;stroke-linejoin:miter;stroke-miterlimit:4;stroke-opacity:1;stroke-dasharray:none" d="m 172.3444,773.17592 c 1.35421,-0.1992 2.88883,-0.80438 3.38346,0.93046" id="path3865" inkscape:connector-curvature="0" sodipodi:nodetypes="cc"/>
    <path style="fill:none;stroke:#000000;stroke-width:2.83464575;stroke-linecap:butt;stroke-linejoin:miter;stroke-miterlimit:4;stroke-opacity:1;stroke-dasharray:none" d="m 173.03801,807.43345 c 3.02499,1.79889 3.2908,-7.70228 2.52068,-9.55826" id="path3867" inkscape:connector-curvature="0" sodipodi:nodetypes="cc"/>
    <path style="fill:none;stroke:#000000;stroke-width:2.83464575;stroke-linecap:butt;stroke-linejoin:miter;stroke-miterlimit:4;stroke-opacity:1;stroke-dasharray:none" d="m 239.16773,788.48608 c 6.95384,7.99186 9.82251,2.92527 7.27444,-0.25376" id="path3869" inkscape:connector-curvature="0" sodipodi:nodetypes="cc"/>
    <path style="fill:#ffe1c1;stroke:#000000;stroke-width:2.83464574999999996;stroke-linecap:butt;stroke-linejoin:miter;stroke-miterlimit:4;stroke-opacity:1;stroke-dasharray:none;fill-opacity:1" d="m 115.22922,928.7881 c 8.60312,-1.88334 13.29241,-3.16748 34.10201,-14.77129 15.08971,20.23047 18.86613,7.6732 28.44114,24.13643 6.12846,7.57926 16.8399,-4.00734 11.72602,-15.09538 -21.2058,-24.5692 -17.35402,-47.13021 -36.76361,-44.45351 -23.43419,-4.48947 -17.36305,-2.09027 -39.52139,0.43745 -17.528132,14.96926 0.61623,39.06226 2.01583,49.7463 z" id="path3871" inkscape:connector-curvature="0" sodipodi:nodetypes="ccccccc"/>
    <path style="fill:#ff0e00;stroke:#000000;stroke-width:2.83464574999999996;stroke-linecap:butt;stroke-linejoin:miter;stroke-miterlimit:4;stroke-opacity:1;stroke-dasharray:none;fill-opacity:1" d="m 120.05416,877.7705 c 0,0 -2.29662,-3.92404 -17.17064,-2.87095 -3.814389,-3.70662 -11.867201,9.68233 -18.188579,8.48269 -4.195506,17.27656 -12.930259,8.37771 -15.834591,33.66542 15.112784,10.67498 39.45353,17.23129 46.04889,16.34212 9.07278,-7.1823 4.18793,-5.38733 0.14994,-5.07776 -1.81345,-12.01082 -18.042045,-33.44367 -2.95129,-49.10201 4.32466,-1.78204 5.76118,-0.88054 7.94627,-1.43951 z" id="path3873" inkscape:connector-curvature="0" sodipodi:nodetypes="cccccccc"/>
    <path style="fill:#e9cdaf;stroke:#000000;stroke-width:2.83464574999999996;stroke-linecap:butt;stroke-linejoin:miter;stroke-miterlimit:4;stroke-opacity:1;stroke-dasharray:none;fill-opacity:1" d="m 107.30375,932.76367 c -1.75393,14.38552 4.45481,17.12038 4.39849,29.80829 -9.90491,6.71506 2.83433,17.43146 -7.47444,36.84955 5.39751,6.97929 10.79502,6.39539 16.19252,2.56959 12.28093,-23.96261 22.15579,-26.31332 22.50241,-35.79996 -0.37474,-20.88096 7.70629,-32.3376 1.09731,-49.00229 -10.20296,5.18836 -15.49973,7.40761 -23.31187,10.80286 -0.64309,1.40946 -3.74421,3.17788 -5.72097,5.47852 -2.31171,-0.0439 -4.00149,0.10933 -7.68345,-0.70656 z" id="path3875" inkscape:connector-curvature="0" sodipodi:nodetypes="ccccccccc"/>
    <path style="fill:#fffbdd;stroke:#000000;stroke-width:2.83464574999999996;stroke-linecap:butt;stroke-linejoin:miter;stroke-miterlimit:4;stroke-opacity:1;stroke-dasharray:none;fill-opacity:1" d="m 106.04319,996.0597 c -2.38125,-2.20433 -4.50929,2.36048 -7.781954,3.72181 -10.866434,6.14499 0.244952,12.02689 18.270684,32.81959 11.32963,16.1692 28.13351,13.5175 20.63909,-3.7218 -3.34073,-9.77 -8.38947,-19.3273 -16.24059,-26.391 -4.98223,0.6928 -7.82319,6.9529 -16.91731,-3.04514 z" id="path3877" inkscape:connector-curvature="0" sodipodi:nodetypes="ccccccc"/>
    <path style="fill:#fffbdd;stroke:#000000;stroke-width:2.83464574999999996;stroke-linecap:butt;stroke-linejoin:miter;stroke-miterlimit:4;stroke-opacity:1;stroke-dasharray:none;fill-opacity:1" d="m 182.10337,948.01457 c 3.59438,4.43231 4.12539,7.9326 7.44361,8.45866 0.34507,20.43815 25.30626,11.34908 25.0376,-4.73685 -0.095,-5.6893 6.46866,-15.54523 6.09023,-26.39099 -1.19565,-34.26697 -35.94241,-25.09029 -30.78949,-3.7218 3.39741,8.27118 -2.17629,24.16934 -11.8421,17.59399 z" id="path3879" inkscape:connector-curvature="0" sodipodi:nodetypes="ccssccc"/>
    <path style="fill:#787ea4;stroke:#000000;stroke-width:2.12598419000000005;stroke-linecap:butt;stroke-linejoin:miter;stroke-miterlimit:4;stroke-opacity:1;stroke-dasharray:none;fill-opacity:1" d="m 200.37404,926.02208 c -8.22417,-16.69577 19.79724,-33.14147 16.91731,2.03008 -2.64856,13.37255 -5.06379,14.42659 -6.09023,22.66918 3.38346,10.69074 -18.27068,25.26266 -15.22557,5.41354 0.96653,-8.42651 7.48084,-17.80095 4.39849,-30.1128 z" id="path3881" inkscape:connector-curvature="0" sodipodi:nodetypes="ccccc"/>
    <path style="fill:none;stroke:#000000;stroke-width:2.12598419;stroke-linecap:butt;stroke-linejoin:miter;stroke-miterlimit:4;stroke-opacity:1;stroke-dasharray:none" d="m 70.333091,763.70224 c 3.080299,15.60624 27.174678,20.64226 40.263169,30.78948 7.83948,-25.86977 0.90226,-20.41354 1.35338,-30.45114" id="path3949" inkscape:connector-curvature="0" sodipodi:nodetypes="ccc"/>
    <path style="fill:none;stroke:#000000;stroke-width:2.12598419;stroke-linecap:butt;stroke-linejoin:miter;stroke-miterlimit:4;stroke-opacity:1;stroke-dasharray:none" d="m 167.43838,773.17592 c -6.46358,13.77462 -5.0247,25.00704 -1.89474,31.80453" id="path3951" inkscape:connector-curvature="0" sodipodi:nodetypes="cc"/>
    <path style="fill:none;stroke:#000000;stroke-width:2.12598419;stroke-linecap:butt;stroke-linejoin:miter;stroke-miterlimit:4;stroke-opacity:1;stroke-dasharray:none" d="M 8.4157777,821.22105 C 21.966711,792.88356 52.134053,811.05175 49.051128,824.3" id="path3953" inkscape:connector-curvature="0" sodipodi:nodetypes="cc"/>
    <path style="fill:#ffc400;stroke:#000000;stroke-width:2.12598419000000005;stroke-linecap:butt;stroke-linejoin:miter;stroke-miterlimit:4;stroke-opacity:1;stroke-dasharray:none;fill-opacity:1" d="m 76.302582,897.63486 c 8.956488,10.7753 22.693089,14.98581 34.781968,19.04887 l -2.06392,-4.90601 -7.88346,-3.04511 6.19173,-1.99625 -0.54135,-4.90601 -6.56391,2.19924 C 93.456725,905.516 87.400329,899.32991 80.633413,892.86418 z" id="path3955" inkscape:connector-curvature="0" sodipodi:nodetypes="ccccccccc"/>
    <path style="fill:none;stroke:#000000;stroke-width:2.12598419;stroke-linecap:butt;stroke-linejoin:miter;stroke-miterlimit:4;stroke-opacity:1;stroke-dasharray:none" d="m 98.18899,1000.5668 c -0.801036,4.0073 0.122108,7.9112 3.34015,10.5788 l 18.94303,19.9478 c 3.41606,4.6165 3.33895,6.8754 15.50983,11.0625 -5.45513,2.3895 -11.40402,-0.1587 -17.75211,-6.6989 -8.14667,-10.6154 -14.73085,-17.0642 -21.603978,-24.2835 -4.531517,-7.881 -0.861217,-9.6815 1.563078,-10.6067 z" id="path3973" inkscape:connector-curvature="0" sodipodi:nodetypes="ccccccc"/>
    <path style="fill:none;stroke:#000000;stroke-width:2.12598419;stroke-linecap:round;stroke-linejoin:miter;stroke-miterlimit:4;stroke-opacity:1;stroke-dasharray:none" d="m 122.91913,1010.1686 c 2.7879,3.6303 7.18175,10.5606 8.20616,15.0726" id="path3975" inkscape:connector-curvature="0" sodipodi:nodetypes="cc"/>
    <path style="fill:#0007ff;stroke:#000000;stroke-width:2.12598419000000005;stroke-linecap:butt;stroke-linejoin:miter;stroke-miterlimit:4;stroke-opacity:1;stroke-dasharray:none;fill-opacity:1" d="m 106.70219,1016.1511 c 2.67603,-1.8754 6.78865,-2.7636 10.35539,-3.3029 0.26097,1.3272 0.93617,2.7955 2.00967,4.5218 -3.43121,-0.1895 -5.65134,1.5889 -8.82023,2.8563 z" id="path3977" inkscape:connector-curvature="0" sodipodi:nodetypes="ccccc"/>
    <path style="fill:#0007ff;stroke:#000000;stroke-width:2.12598419000000005;stroke-linecap:butt;stroke-linejoin:miter;stroke-miterlimit:4;stroke-opacity:1;stroke-dasharray:none;fill-opacity:1" d="m 112.7312,1022.757 c 2.67604,-1.8754 4.77898,-1.9169 8.34573,-2.4563 0.26097,1.3273 1.63397,2.8514 2.37253,3.9078 -3.76616,0.9828 -4.00453,1.1795 -7.17342,2.4469 z" id="path3977-7" inkscape:connector-curvature="0" sodipodi:nodetypes="ccccc"/>
    <path style="fill:none;stroke:#000000;stroke-width:2.12598419;stroke-linecap:round;stroke-linejoin:miter;stroke-miterlimit:4;stroke-opacity:1;stroke-dasharray:none" d="m 203.29906,913.84514 8.27553,-3.15325" id="path3997" inkscape:connector-curvature="0" sodipodi:nodetypes="cc"/>
    <path style="fill:none;stroke:#000000;stroke-width:2.12598419;stroke-linecap:round;stroke-linejoin:miter;stroke-miterlimit:4;stroke-opacity:1;stroke-dasharray:none" d="m 202.0074,918.65109 11.35448,-4.10061" id="path3997-6" inkscape:connector-curvature="0" sodipodi:nodetypes="cc"/>
    <path style="fill:none;stroke:#000000;stroke-width:2.12598419;stroke-linecap:round;stroke-linejoin:miter;stroke-miterlimit:4;stroke-opacity:1;stroke-dasharray:none" d="m 202.71793,922.91425 11.82816,-3.86377" id="path3997-5" inkscape:connector-curvature="0" sodipodi:nodetypes="cc"/>
    <path style="fill:none;stroke:#000000;stroke-width:2.12598419;stroke-linecap:round;stroke-linejoin:miter;stroke-miterlimit:4;stroke-opacity:1;stroke-dasharray:none" d="m 203.90213,927.17741 10.64396,-3.62693" id="path3997-8" inkscape:connector-curvature="0" sodipodi:nodetypes="cc"/>
    <path style="fill:none;stroke:#000000;stroke-width:2.12598419;stroke-linecap:round;stroke-linejoin:miter;stroke-miterlimit:4;stroke-opacity:1;stroke-dasharray:none" d="m 203.90214,932.62478 10.64395,-3.86377" id="path3997-2" inkscape:connector-curvature="0" sodipodi:nodetypes="cc"/>
    <path style="fill:none;stroke:#000000;stroke-width:2.12598419;stroke-linecap:round;stroke-linejoin:miter;stroke-miterlimit:4;stroke-opacity:1;stroke-dasharray:none" d="m 203.19161,937.59847 9.93342,-3.62694" id="path3997-66" inkscape:connector-curvature="0" sodipodi:nodetypes="cc"/>
    <path style="fill:none;stroke:#000000;stroke-width:2.12598419;stroke-linecap:round;stroke-linejoin:miter;stroke-miterlimit:4;stroke-opacity:1;stroke-dasharray:none" d="m 201.77055,942.33531 10.17027,-3.62693" id="path3997-57" inkscape:connector-curvature="0" sodipodi:nodetypes="cc"/>
    <path style="fill:none;stroke:#000000;stroke-width:2.12598419;stroke-linecap:round;stroke-linejoin:miter;stroke-miterlimit:4;stroke-opacity:1;stroke-dasharray:none" d="m 201.53372,946.59847 8.27553,-3.15325" id="path3997-1" inkscape:connector-curvature="0" sodipodi:nodetypes="cc"/>
    <path style="fill:none;stroke:#000000;stroke-width:2.12598419;stroke-linecap:round;stroke-linejoin:miter;stroke-miterlimit:4;stroke-opacity:1;stroke-dasharray:none" d="m 200.3495,951.57215 8.27553,-3.15325" id="path3997-67" inkscape:connector-curvature="0" sodipodi:nodetypes="cc"/>
    <path style="fill:none;stroke:#000000;stroke-width:2.12598419;stroke-linecap:round;stroke-linejoin:miter;stroke-miterlimit:4;stroke-opacity:1;stroke-dasharray:none" d="m 198.21792,957.01952 10.88079,-4.10062" id="path3997-3" inkscape:connector-curvature="0" sodipodi:nodetypes="cc"/>
    <path style="fill:none;stroke:#000000;stroke-width:2.12598419;stroke-linecap:round;stroke-linejoin:miter;stroke-miterlimit:4;stroke-opacity:1;stroke-dasharray:none" d="m 198.69161,961.04585 9.45973,-3.3901" id="path3997-59" inkscape:connector-curvature="0" sodipodi:nodetypes="cc"/>
    <g id="g5190" transform="matrix(0.87227859,0,0,0.87227859,14.105605,241.67266)">
      <path id="path5119" stroke-miterlimit="10" i:knockout="Off" d="m 245.4995,659.07018 c 29.152,0 52.813,22.531 52.813,50.292 0,27.76 -23.66,50.292 -52.813,50.292 -29.153,0 -52.812,-22.532 -52.812,-50.292 0,-27.761 23.66,-50.292 52.812,-50.292" clip-rule="evenodd" inkscape:connector-curvature="0" style="fill-rule:evenodd;stroke:#000000;stroke-width:0.03543307;stroke-miterlimit:10;stroke-dasharray:none"/>
      <path id="path5121" stroke-miterlimit="10" i:knockout="Off" d="m 217.9235,670.27018 c -1.548,0.648 -2.664,1.332 -3.78,2.196 -1.116,0.756 -1.908,1.692 -2.664,2.664 -0.864,0.9 -1.584,1.872 -2.16,2.916 l 7.128,-1.836 h 0 c 0.468,-1.98 0.972,-3.96 1.476,-5.94 z" clip-rule="evenodd" inkscape:connector-curvature="0" style="fill:#ffffff;fill-rule:evenodd;stroke:#000000;stroke-width:0.03543307;stroke-miterlimit:10;stroke-dasharray:none"/>
      <path id="path5123" stroke-miterlimit="10" i:knockout="Off" d="m 225.5555,667.13818 15.984,-3.888 11.016,9.108 -2.916,11.628 -12.24,5.688 -15.48,-4.104 -2.304,-9.468 5.94,-8.964 z" clip-rule="evenodd" inkscape:connector-curvature="0" style="fill:#ffffff;fill-rule:evenodd;stroke:#000000;stroke-width:0.03543307;stroke-miterlimit:10;stroke-dasharray:none"/>
      <path id="path5125" stroke-miterlimit="10" i:knockout="Off" d="m 256.0115,673.07818 -1.943,11.016 12.131,12.132 12.96,-1.944 3.996,-14.544 -14.184,-11.628 -12.96,4.968 z" clip-rule="evenodd" inkscape:connector-curvature="0" style="fill:#ffffff;fill-rule:evenodd;stroke:#000000;stroke-width:0.03543307;stroke-miterlimit:10;stroke-dasharray:none"/>
      <path id="path5127" stroke-miterlimit="10" i:knockout="Off" d="m 268.7195,700.33018 12.24,-2.196 7.272,12.24 -10.044,16.596 -12.6,-1.188 -4.607,-10.549 7.739,-14.903 z" clip-rule="evenodd" inkscape:connector-curvature="0" style="fill:#ffffff;fill-rule:evenodd;stroke:#000000;stroke-width:0.03543307;stroke-miterlimit:10;stroke-dasharray:none"/>
      <path id="path5129" stroke-miterlimit="10" i:knockout="Off" d="m 287.1515,734.96218 -5.832,-6.768 10.188,-17.209 3.528,-1.943 c 0.036,4.176 -0.288,7.703 -0.972,11.268 -0.828,3.527 -2.053,6.732 -3.276,9.324 -1.223,2.447 -2.34,4.176 -3.636,5.328 z" clip-rule="evenodd" inkscape:connector-curvature="0" style="fill:#ffffff;fill-rule:evenodd;stroke:#000000;stroke-width:0.03543307;stroke-miterlimit:10;stroke-dasharray:none"/>
      <path id="path5131" stroke-miterlimit="10" i:knockout="Off" d="m 226.5635,722.47018 14.436,-10.656 16.236,4.248 5.184,12.205 -8.964,11.771 -20.232,-4.248 -6.66,-13.32 z" clip-rule="evenodd" inkscape:connector-curvature="0" style="fill:#ffffff;fill-rule:evenodd;stroke:#000000;stroke-width:0.03543307;stroke-miterlimit:10;stroke-dasharray:none"/>
      <path id="path5133" stroke-miterlimit="10" i:knockout="Off" d="m 257.6315,756.16518 c -2.988,0.434 -6.012,0.756 -9.216,0.828 -3.312,0.072 -6.84,0 -10.044,-0.359 -3.42,-0.504 -6.588,-1.404 -9.36,-2.305 -2.772,-0.971 -4.896,-2.051 -6.768,-3.383 l -0.252,-4.861 9.576,-7.271 21.457,3.781 6.155,9.432 -1.548,4.138 z" clip-rule="evenodd" inkscape:connector-curvature="0" style="fill:#ffffff;fill-rule:evenodd;stroke:#000000;stroke-width:0.03543307;stroke-miterlimit:10;stroke-dasharray:none"/>
      <path id="path5135" stroke-miterlimit="10" i:knockout="Off" d="m 206.9795,702.77818 13.212,-13.428 14.292,3.996 3.636,15.48 -14.904,11.521 -12.96,-0.361 -3.276,-17.208 z" clip-rule="evenodd" inkscape:connector-curvature="0" style="fill:#ffffff;fill-rule:evenodd;stroke:#000000;stroke-width:0.03543307;stroke-miterlimit:10;stroke-dasharray:none"/>
      <path id="path5137" stroke-miterlimit="10" i:knockout="Off" d="m 202.1195,730.17518 c -1.152,0.467 -2.232,-0.758 -3.384,-3.277 -1.26,-2.736 -2.952,-8.244 -3.528,-12.348 -0.54,-4.141 -0.504,-8.172 0.252,-12.24 l 7.524,2.412 3.996,16.705 -4.86,8.748 z" clip-rule="evenodd" inkscape:connector-curvature="0" style="fill:#ffffff;fill-rule:evenodd;stroke:#000000;stroke-width:0.03543307;stroke-miterlimit:10;stroke-dasharray:none"/>
    </g>
  </g>
  <metadata>
    <rdf:RDF>
      <cc:Work>
        <dc:format>image/svg+xml</dc:format>
        <dc:type rdf:resource="http://purl.org/dc/dcmitype/StillImage"/>
        <cc:license rdf:resource="http://creativecommons.org/licenses/publicdomain/"/>
        <dc:publisher>
          <cc:Agent rdf:about="http://openclipart.org/">
            <dc:title>Open Clip Art Library</dc:title>
          </cc:Agent>
        </dc:publisher>
        <dc:title>Soccer playing boy coloured</dc:title>
        <dc:date>2012-05-22T14:34:14</dc:date>
        <dc:description>A soccer playing boy</dc:description>
        <dc:source>http://openclipart.org/detail/170155/soccer-playing-boy-coloured-by-frankes</dc:source>
        <dc:creator>
          <cc:Agent>
            <dc:title>frankes</dc:title>
          </cc:Agent>
        </dc:creator>
        <dc:subject>
          <rdf:Bag>
            <rdf:li>FuÃŸball</rdf:li>
            <rdf:li>Junge</rdf:li>
            <rdf:li>boy</rdf:li>
            <rdf:li>clip art</rdf:li>
            <rdf:li>clipart</rdf:li>
            <rdf:li>football</rdf:li>
            <rdf:li>game</rdf:li>
            <rdf:li>playing</rdf:li>
            <rdf:li>soccer</rdf:li>
            <rdf:li>spiel</rdf:li>
            <rdf:li>spielen</rdf:li>
            <rdf:li>sport</rdf:li>
            <rdf:li>sports</rdf:li>
          </rdf:Bag>
        </dc:subject>
      </cc:Work>
      <cc:License rdf:about="http://creativecommons.org/licenses/publicdomain/">
        <cc:permits rdf:resource="http://creativecommons.org/ns#Reproduction"/>
        <cc:permits rdf:resource="http://creativecommons.org/ns#Distribution"/>
        <cc:permits rdf:resource="http://creativecommons.org/ns#DerivativeWorks"/>
      </cc:License>
    </rdf:RDF>
  </metadata>
</svg>